M48
; DRILL file {KiCad 9.0.4} date 2025-11-21T12:06:09-0500
; FORMAT={-:-/ absolute / inch / decimal}
; #@! TF.CreationDate,2025-11-21T12:06:09-05:00
; #@! TF.GenerationSoftware,Kicad,Pcbnew,9.0.4
; #@! TF.FileFunction,Plated,1,2,PTH
FMAT,2
INCH
; #@! TA.AperFunction,Plated,PTH,ViaDrill
T1C0.0118
; #@! TA.AperFunction,Plated,PTH,ComponentDrill
T2C0.0236
; #@! TA.AperFunction,Plated,PTH,ComponentDrill
T3C0.0315
; #@! TA.AperFunction,Plated,PTH,ComponentDrill
T4C0.0394
; #@! TA.AperFunction,Plated,PTH,ComponentDrill
T5C0.0430
; #@! TA.AperFunction,Plated,PTH,ComponentDrill
T6C0.0480
; #@! TA.AperFunction,Plated,PTH,ComponentDrill
T7C0.0512
; #@! TA.AperFunction,Plated,PTH,ComponentDrill
T8C0.0984
%
G90
G05
T1
X0.7343Y-2.2205
X0.7638Y-3.0177
X0.7854Y-4.0768
X0.789Y-2.6411
X0.939Y-5.1811
X1.0335Y-2.1772
X1.0748Y-4.2087
X1.1192Y-2.2283
X1.126Y-0.9843
X1.1443Y-2.561
X1.1476Y-1.9528
X1.1988Y-2.9213
X1.2283Y-1.1673
X1.2283Y-1.6063
X1.2618Y-3.9547
X1.295Y-3.6595
X1.3386Y-3.2835
X1.4094Y-5.8839
X1.4213Y-6.5295
X1.435Y-5.1673
X1.462Y-2.701
X1.4626Y-6.9488
X1.5472Y-4.1752
X1.6693Y-2.0846
X1.752Y-1.9941
X1.8341Y-4.2174
X1.8602Y-3.3287
X1.8949Y-3.6054
X1.8957Y-6.8957
X1.9048Y-5.7337
X1.9941Y-3.4705
X2.0013Y-4.0579
X2.0243Y-5.4048
X2.1457Y-3.2283
X2.1988Y-1.8583
X2.2283Y-2.7618
X2.2382Y-6.374
X2.2589Y-6.0719
X2.2697Y-6.8425
X2.2736Y-2.7382
X2.2913Y-5.3071
X2.3209Y-2.2638
X2.3386Y-3.9646
X2.4291Y-4.437
X2.4783Y-4.4902
X2.4803Y-5.0866
X2.5433Y-4.5413
X2.5512Y-6.0787
X2.5551Y-4.8287
X2.5591Y-1.8406
X2.563Y-6.8425
X2.5687Y-6.2516
X2.5837Y-3.7691
X2.7303Y-1.4469
X2.7441Y-5.7205
X2.7608Y-3.5042
X2.8228Y-1.7835
X2.8566Y-6.1688
X2.8681Y-2.9488
X2.8701Y-1.6024
X2.9212Y-5.3557
X2.9212Y-6.8096
X2.9646Y-3.4862
X3.0008Y-3.1321
X3.1102Y-2.4094
X3.126Y-2.065
X3.1594Y-2.2638
X3.1614Y-1.3327
X3.2677Y-6.815
X3.4566Y-1.3388
X3.4921Y-1.7264
X3.5118Y-1.9606
X3.5394Y-2.1358
X3.5827Y-2.4469
X3.6929Y-1.3287
X3.7146Y-3.4114
X3.7618Y-3.5138
X3.7972Y-4.7697
X3.8327Y-3.5709
X3.8582Y-6.885
X4.2913Y-6.9018
X4.3301Y-1.9505
X4.3524Y-2.2382
X4.5227Y-5.6791
X4.6201Y-5.3701
X4.6693Y-6.2028
X4.7106Y-2.0118
X4.7166Y-1.6511
X4.752Y-6.8581
X4.7697Y-2.3839
X4.7953Y-5.8622
X4.9055Y-5.4272
X4.9967Y-5.8518
X5.0748Y-1.6612
X5.0886Y-6.8858
X5.1299Y-6.0925
X5.1358Y-2.065
X5.2202Y-2.442
X5.2909Y-5.3129
X5.3448Y-5.7473
X5.4055Y-6.6909
X5.4528Y-1.6201
X5.5961Y-2.0151
X5.7428Y-6.8581
X5.9961Y-2.2323
X6.0713Y-6.8957
X6.0925Y-2.4154
X6.1554Y-1.3653
X6.2264Y-2.0197
X6.3366Y-6.8327
X6.3642Y-1.5157
X6.5646Y-1.3761
X6.6083Y-1.5709
T3
X1.6161Y-6.15
X1.6161Y-6.25
X1.7441Y-2.2756
X1.8441Y-2.2756
X1.998Y-2.3799
X2.098Y-2.3799
X4.8567Y-3.1496
X4.8606Y-3.2874
X4.8622Y-3.0472
X4.8622Y-3.5748
X4.8646Y-3.7126
X4.8665Y-3.435
X4.9567Y-3.1496
X4.9606Y-3.2874
X4.9622Y-3.0472
X4.9622Y-3.5748
X4.9646Y-3.7126
X4.9665Y-3.435
T4
X1.6937Y-3.1287
X1.6937Y-3.2287
X1.6937Y-3.3287
X1.6937Y-3.4287
X1.6937Y-3.5287
X1.6937Y-3.6287
X2.3937Y-3.1287
X2.3937Y-3.2287
X2.3937Y-3.3287
X2.3937Y-3.4287
X2.3937Y-3.5287
X2.3937Y-3.6287
X3.3642Y-2.6287
X3.3642Y-2.7287
X3.3642Y-2.8287
X3.3642Y-2.9287
X3.3642Y-3.0287
X3.3642Y-3.1287
X3.3642Y-3.2287
X3.3642Y-3.3287
X3.3642Y-3.4287
X3.3642Y-3.5287
X3.3642Y-3.6287
X3.3642Y-3.7287
X3.3642Y-3.8287
X3.3642Y-3.9287
X3.3642Y-4.0287
X3.3642Y-4.1287
X3.3642Y-4.2287
X3.3642Y-4.3287
X3.3642Y-4.4287
X3.3642Y-4.5287
X3.3642Y-4.6287
X3.3642Y-4.7287
X3.3642Y-4.8287
X3.3642Y-4.9287
X3.3642Y-5.0287
X3.3642Y-5.1287
X3.3642Y-5.2287
X3.3642Y-5.3287
X3.3661Y-6.0268
X3.3661Y-6.1268
X3.3661Y-6.2268
X4.0102Y-1.2756
X4.065Y-2.6287
X4.065Y-2.7287
X4.065Y-2.8287
X4.065Y-2.9287
X4.065Y-3.0287
X4.065Y-3.1287
X4.065Y-3.2287
X4.065Y-3.3287
X4.065Y-3.4287
X4.065Y-3.5287
X4.065Y-3.6287
X4.065Y-3.7287
X4.065Y-3.8287
X4.065Y-3.9287
X4.065Y-4.0287
X4.065Y-4.1287
X4.065Y-4.2287
X4.065Y-4.3287
X4.065Y-4.4287
X4.065Y-4.5287
X4.065Y-4.6287
X4.065Y-4.7287
X4.065Y-4.8287
X4.065Y-4.9287
X4.065Y-5.0287
X4.065Y-5.1287
X4.065Y-5.2287
X4.065Y-5.3287
X4.0661Y-5.9291
X4.0661Y-6.0291
X4.0661Y-6.1291
X4.0661Y-6.2291
X4.1102Y-1.2756
X4.2102Y-1.2756
X4.3102Y-1.2756
X4.4102Y-1.2756
X5.687Y-2.6201
X5.687Y-2.7201
X5.687Y-2.8201
X5.687Y-2.9201
X5.687Y-3.0201
X5.687Y-3.1201
X5.687Y-3.2201
X5.687Y-3.3201
X5.687Y-3.4201
X5.687Y-3.5201
X5.687Y-3.6201
X5.687Y-3.7201
X5.687Y-3.8201
X5.687Y-3.9201
X5.687Y-4.0201
X5.687Y-4.1201
X5.687Y-4.2201
X5.687Y-4.3201
X5.687Y-4.4201
X5.687Y-4.5201
X5.687Y-4.6201
X5.687Y-4.7201
X5.687Y-4.8201
X5.687Y-4.9201
X5.687Y-5.0201
X5.687Y-5.1201
X5.687Y-5.2201
X5.687Y-5.3201
X5.689Y-6.0134
X5.689Y-6.1134
X5.689Y-6.2134
X6.2785Y-1.0758
X6.3785Y-1.0758
X6.3839Y-2.6209
X6.3839Y-2.7209
X6.3839Y-2.8209
X6.3839Y-2.9209
X6.3839Y-3.0209
X6.3839Y-3.1209
X6.3839Y-3.2209
X6.3839Y-3.3209
X6.3839Y-3.4209
X6.3839Y-3.5209
X6.3839Y-3.6209
X6.3839Y-3.7209
X6.3839Y-3.8209
X6.3839Y-3.9209
X6.3839Y-4.0209
X6.3839Y-4.1209
X6.3839Y-4.2209
X6.3839Y-4.3209
X6.3839Y-4.4209
X6.3839Y-4.5209
X6.3839Y-4.6209
X6.3839Y-4.7209
X6.3839Y-4.8209
X6.3839Y-4.9209
X6.3839Y-5.0209
X6.3839Y-5.1209
X6.3839Y-5.2209
X6.3839Y-5.3209
X6.3846Y-5.9217
X6.3846Y-6.0217
X6.3846Y-6.1217
X6.3846Y-6.2217
X6.4785Y-1.0758
T5
X0.8327Y-1.4193
X0.8327Y-1.5571
X0.8406Y-1.7892
X0.8406Y-1.927
X0.8579Y-6.1614
X0.8579Y-6.2992
X0.863Y-6.6557
X0.863Y-6.7935
T6
X1.2429Y-4.3249
X1.2429Y-4.4627
X1.2429Y-4.6005
X1.2429Y-4.7383
X1.2429Y-4.8761
X1.2429Y-5.0139
T7
X0.9272Y-5.3669
X0.9272Y-5.5638
X0.9272Y-5.7606
X2.7854Y-1.0512
X2.9823Y-1.0512
X3.1791Y-1.0512
X5.189Y-0.998
X5.3858Y-0.998
X5.5827Y-0.998
T8
X1.6937Y-2.9787
X1.6937Y-3.7787
X2.3937Y-2.9787
X2.3937Y-3.7787
T2
G00X0.9484Y-0.9358
M15
G01X0.9484Y-0.9122
M16
G05
G00X0.9484Y-1.0854
M15
G01X0.9484Y-1.0618
M16
G05
G00X1.2886Y-0.9358
M15
G01X1.2886Y-0.9122
M16
G05
G00X1.2886Y-1.0854
M15
G01X1.2886Y-1.0618
M16
G05
M30
