M48
; DRILL file {KiCad 9.0.4} date 2025-11-21T13:38:20-0500
; FORMAT={-:-/ absolute / metric / decimal}
; #@! TF.CreationDate,2025-11-21T13:38:20-05:00
; #@! TF.GenerationSoftware,Kicad,Pcbnew,9.0.4
; #@! TF.FileFunction,Plated,1,2,PTH
FMAT,2
METRIC
; #@! TA.AperFunction,Plated,PTH,ViaDrill
T1C0.300
; #@! TA.AperFunction,Plated,PTH,ComponentDrill
T2C0.600
; #@! TA.AperFunction,Plated,PTH,ComponentDrill
T3C0.800
; #@! TA.AperFunction,Plated,PTH,ComponentDrill
T4C1.000
; #@! TA.AperFunction,Plated,PTH,ComponentDrill
T5C1.092
; #@! TA.AperFunction,Plated,PTH,ComponentDrill
T6C1.219
; #@! TA.AperFunction,Plated,PTH,ComponentDrill
T7C1.300
; #@! TA.AperFunction,Plated,PTH,ComponentDrill
T8C2.500
%
G90
G05
T1
X18.65Y-56.4
X19.4Y-76.65
X19.95Y-103.55
X20.04Y-67.084
X23.85Y-131.6
X26.25Y-55.3
X27.3Y-106.9
X28.429Y-56.598
X28.6Y-25.0
X29.064Y-65.05
X29.15Y-49.6
X30.45Y-74.2
X31.2Y-29.65
X31.2Y-40.8
X32.05Y-100.45
X32.894Y-92.952
X34.0Y-83.4
X35.8Y-149.45
X36.1Y-165.85
X36.45Y-131.25
X37.134Y-68.606
X37.15Y-176.5
X39.3Y-106.05
X42.4Y-52.95
X44.5Y-50.65
X46.586Y-107.121
X47.25Y-84.55
X48.129Y-91.577
X48.15Y-175.15
X48.383Y-145.637
X50.65Y-88.15
X50.833Y-103.07
X51.417Y-137.283
X54.5Y-82.0
X55.85Y-47.2
X56.6Y-70.15
X56.85Y-161.9
X57.376Y-154.226
X57.65Y-173.8
X57.75Y-69.55
X58.2Y-134.8
X58.95Y-57.5
X59.4Y-100.7
X61.7Y-112.7
X62.95Y-114.05
X63.0Y-129.2
X64.6Y-115.35
X64.8Y-154.4
X64.9Y-122.65
X65.0Y-46.75
X65.1Y-173.8
X65.245Y-158.791
X65.625Y-95.734
X69.35Y-36.75
X69.7Y-145.3
X70.123Y-89.007
X71.7Y-45.3
X72.558Y-156.688
X72.85Y-74.9
X72.9Y-40.7
X74.199Y-136.035
X74.199Y-172.964
X75.3Y-88.55
X76.221Y-79.556
X79.0Y-61.2
X79.4Y-52.45
X80.25Y-57.5
X80.3Y-33.85
X83.0Y-173.1
X87.798Y-34.005
X88.7Y-43.85
X89.2Y-49.8
X89.9Y-54.25
X91.0Y-62.15
X93.8Y-33.75
X94.35Y-86.65
X95.55Y-89.25
X96.45Y-121.15
X97.35Y-90.7
X97.998Y-174.878
X108.998Y-175.306
X109.984Y-49.543
X110.55Y-56.85
X114.877Y-144.248
X117.35Y-136.4
X118.6Y-157.55
X119.65Y-51.1
X119.803Y-41.938
X120.702Y-174.195
X121.15Y-60.55
X121.8Y-148.9
X124.6Y-137.85
X126.915Y-148.635
X128.901Y-42.194
X129.25Y-174.9
X130.3Y-154.75
X130.45Y-52.45
X132.593Y-62.026
X134.389Y-134.948
X135.757Y-145.981
X137.3Y-169.95
X138.5Y-41.15
X142.14Y-51.184
X145.868Y-174.195
X152.3Y-56.7
X154.211Y-175.152
X154.75Y-61.35
X156.347Y-34.679
X158.15Y-51.3
X160.95Y-173.55
X161.65Y-38.5
X166.742Y-34.953
X167.85Y-39.9
T3
X41.05Y-156.21
X41.05Y-158.75
X44.3Y-57.8
X46.84Y-57.8
X50.75Y-60.45
X53.29Y-60.45
X123.36Y-80.0
X123.46Y-83.5
X123.5Y-77.4
X123.5Y-90.8
X123.56Y-94.3
X123.61Y-87.25
X125.9Y-80.0
X126.0Y-83.5
X126.04Y-77.4
X126.04Y-90.8
X126.1Y-94.3
X126.15Y-87.25
T4
X43.02Y-79.47
X43.02Y-82.01
X43.02Y-84.55
X43.02Y-87.09
X43.02Y-89.63
X43.02Y-92.17
X60.8Y-79.47
X60.8Y-82.01
X60.8Y-84.55
X60.8Y-87.09
X60.8Y-89.63
X60.8Y-92.17
X85.45Y-66.77
X85.45Y-69.31
X85.45Y-71.85
X85.45Y-74.39
X85.45Y-76.93
X85.45Y-79.47
X85.45Y-82.01
X85.45Y-84.55
X85.45Y-87.09
X85.45Y-89.63
X85.45Y-92.17
X85.45Y-94.71
X85.45Y-97.25
X85.45Y-99.79
X85.45Y-102.33
X85.45Y-104.87
X85.45Y-107.41
X85.45Y-109.95
X85.45Y-112.49
X85.45Y-115.03
X85.45Y-117.57
X85.45Y-120.11
X85.45Y-122.65
X85.45Y-125.19
X85.45Y-127.73
X85.45Y-130.27
X85.45Y-132.81
X85.45Y-135.35
X85.5Y-153.08
X85.5Y-155.62
X85.5Y-158.16
X101.86Y-32.4
X103.25Y-66.77
X103.25Y-69.31
X103.25Y-71.85
X103.25Y-74.39
X103.25Y-76.93
X103.25Y-79.47
X103.25Y-82.01
X103.25Y-84.55
X103.25Y-87.09
X103.25Y-89.63
X103.25Y-92.17
X103.25Y-94.71
X103.25Y-97.25
X103.25Y-99.79
X103.25Y-102.33
X103.25Y-104.87
X103.25Y-107.41
X103.25Y-109.95
X103.25Y-112.49
X103.25Y-115.03
X103.25Y-117.57
X103.25Y-120.11
X103.25Y-122.65
X103.25Y-125.19
X103.25Y-127.73
X103.25Y-130.27
X103.25Y-132.81
X103.25Y-135.35
X103.28Y-150.6
X103.28Y-153.14
X103.28Y-155.68
X103.28Y-158.22
X104.4Y-32.4
X106.94Y-32.4
X109.48Y-32.4
X112.02Y-32.4
X144.45Y-66.55
X144.45Y-69.09
X144.45Y-71.63
X144.45Y-74.17
X144.45Y-76.71
X144.45Y-79.25
X144.45Y-81.79
X144.45Y-84.33
X144.45Y-86.87
X144.45Y-89.41
X144.45Y-91.95
X144.45Y-94.49
X144.45Y-97.03
X144.45Y-99.57
X144.45Y-102.11
X144.45Y-104.65
X144.45Y-107.19
X144.45Y-109.73
X144.45Y-112.27
X144.45Y-114.81
X144.45Y-117.35
X144.45Y-119.89
X144.45Y-122.43
X144.45Y-124.97
X144.45Y-127.51
X144.45Y-130.05
X144.45Y-132.59
X144.45Y-135.13
X144.5Y-152.74
X144.5Y-155.28
X144.5Y-157.82
X159.475Y-27.325
X162.015Y-27.325
X162.15Y-66.57
X162.15Y-69.11
X162.15Y-71.65
X162.15Y-74.19
X162.15Y-76.73
X162.15Y-79.27
X162.15Y-81.81
X162.15Y-84.35
X162.15Y-86.89
X162.15Y-89.43
X162.15Y-91.97
X162.15Y-94.51
X162.15Y-97.05
X162.15Y-99.59
X162.15Y-102.13
X162.15Y-104.67
X162.15Y-107.21
X162.15Y-109.75
X162.15Y-112.29
X162.15Y-114.83
X162.15Y-117.37
X162.15Y-119.91
X162.15Y-122.45
X162.15Y-124.99
X162.15Y-127.53
X162.15Y-130.07
X162.15Y-132.61
X162.15Y-135.15
X162.17Y-150.41
X162.17Y-152.95
X162.17Y-155.49
X162.17Y-158.03
X164.555Y-27.325
T5
X21.15Y-36.05
X21.15Y-39.55
X21.35Y-45.445
X21.35Y-48.945
X21.79Y-156.5
X21.79Y-160.0
X21.92Y-169.055
X21.92Y-172.555
T6
X31.57Y-109.853
X31.57Y-113.353
X31.57Y-116.853
X31.57Y-120.353
X31.57Y-123.853
X31.57Y-127.353
T7
X23.55Y-136.32
X23.55Y-141.32
X23.55Y-146.32
X70.75Y-26.7
X75.75Y-26.7
X80.75Y-26.7
X131.8Y-25.35
X136.8Y-25.35
X141.8Y-25.35
T8
X43.02Y-75.66
X43.02Y-95.98
X60.8Y-75.66
X60.8Y-95.98
T2
G00X24.09Y-23.77
M15
G01X24.09Y-23.17
M16
G05
G00X24.09Y-27.57
M15
G01X24.09Y-26.97
M16
G05
G00X32.73Y-23.77
M15
G01X32.73Y-23.17
M16
G05
G00X32.73Y-27.57
M15
G01X32.73Y-26.97
M16
G05
M30
