%TF.GenerationSoftware,KiCad,Pcbnew,9.0.4*%
%TF.CreationDate,2025-11-21T13:38:27-05:00*%
%TF.ProjectId,ece362project,65636533-3632-4707-926f-6a6563742e6b,rev?*%
%TF.SameCoordinates,Original*%
%TF.FileFunction,Paste,Top*%
%TF.FilePolarity,Positive*%
%FSLAX46Y46*%
G04 Gerber Fmt 4.6, Leading zero omitted, Abs format (unit mm)*
G04 Created by KiCad (PCBNEW 9.0.4) date 2025-11-21 13:38:27*
%MOMM*%
%LPD*%
G01*
G04 APERTURE LIST*
G04 Aperture macros list*
%AMRoundRect*
0 Rectangle with rounded corners*
0 $1 Rounding radius*
0 $2 $3 $4 $5 $6 $7 $8 $9 X,Y pos of 4 corners*
0 Add a 4 corners polygon primitive as box body*
4,1,4,$2,$3,$4,$5,$6,$7,$8,$9,$2,$3,0*
0 Add four circle primitives for the rounded corners*
1,1,$1+$1,$2,$3*
1,1,$1+$1,$4,$5*
1,1,$1+$1,$6,$7*
1,1,$1+$1,$8,$9*
0 Add four rect primitives between the rounded corners*
20,1,$1+$1,$2,$3,$4,$5,0*
20,1,$1+$1,$4,$5,$6,$7,0*
20,1,$1+$1,$6,$7,$8,$9,0*
20,1,$1+$1,$8,$9,$2,$3,0*%
G04 Aperture macros list end*
%ADD10RoundRect,0.200000X0.200000X0.275000X-0.200000X0.275000X-0.200000X-0.275000X0.200000X-0.275000X0*%
%ADD11RoundRect,0.225000X-0.250000X0.225000X-0.250000X-0.225000X0.250000X-0.225000X0.250000X0.225000X0*%
%ADD12RoundRect,0.200000X-0.275000X0.200000X-0.275000X-0.200000X0.275000X-0.200000X0.275000X0.200000X0*%
%ADD13RoundRect,0.200000X0.275000X-0.200000X0.275000X0.200000X-0.275000X0.200000X-0.275000X-0.200000X0*%
%ADD14RoundRect,0.218750X-0.218750X-0.256250X0.218750X-0.256250X0.218750X0.256250X-0.218750X0.256250X0*%
%ADD15RoundRect,0.225000X0.225000X0.250000X-0.225000X0.250000X-0.225000X-0.250000X0.225000X-0.250000X0*%
%ADD16RoundRect,0.200000X-0.200000X-0.275000X0.200000X-0.275000X0.200000X0.275000X-0.200000X0.275000X0*%
%ADD17RoundRect,0.218750X-0.256250X0.218750X-0.256250X-0.218750X0.256250X-0.218750X0.256250X0.218750X0*%
%ADD18RoundRect,0.225000X-0.225000X-0.250000X0.225000X-0.250000X0.225000X0.250000X-0.225000X0.250000X0*%
%ADD19RoundRect,0.075000X0.075000X-0.650000X0.075000X0.650000X-0.075000X0.650000X-0.075000X-0.650000X0*%
%ADD20R,1.200000X2.200000*%
%ADD21R,3.500000X2.200000*%
%ADD22RoundRect,0.175000X0.175000X0.425000X-0.175000X0.425000X-0.175000X-0.425000X0.175000X-0.425000X0*%
%ADD23RoundRect,0.190000X-0.190000X-0.410000X0.190000X-0.410000X0.190000X0.410000X-0.190000X0.410000X0*%
%ADD24RoundRect,0.200000X-0.200000X-0.400000X0.200000X-0.400000X0.200000X0.400000X-0.200000X0.400000X0*%
%ADD25RoundRect,0.175000X-0.175000X-0.425000X0.175000X-0.425000X0.175000X0.425000X-0.175000X0.425000X0*%
%ADD26RoundRect,0.190000X0.190000X0.410000X-0.190000X0.410000X-0.190000X-0.410000X0.190000X-0.410000X0*%
%ADD27RoundRect,0.200000X0.200000X0.400000X-0.200000X0.400000X-0.200000X-0.400000X0.200000X-0.400000X0*%
%ADD28O,1.100000X1.700000*%
%ADD29RoundRect,0.150000X-0.512500X-0.150000X0.512500X-0.150000X0.512500X0.150000X-0.512500X0.150000X0*%
G04 APERTURE END LIST*
D10*
%TO.C,R2*%
X37925000Y-158750000D03*
X36275000Y-158750000D03*
%TD*%
D11*
%TO.C,C10*%
X58950000Y-53550000D03*
X58950000Y-55100000D03*
%TD*%
D12*
%TO.C,R4*%
X27800000Y-154875000D03*
X27800000Y-156525000D03*
%TD*%
D11*
%TO.C,C9*%
X62000000Y-53450000D03*
X62000000Y-55000000D03*
%TD*%
D13*
%TO.C,R3*%
X41050000Y-151325000D03*
X41050000Y-149675000D03*
%TD*%
D12*
%TO.C,R5*%
X28300000Y-167425000D03*
X28300000Y-169075000D03*
%TD*%
D10*
%TO.C,R7*%
X73675000Y-63300000D03*
X72025000Y-63300000D03*
%TD*%
D14*
%TO.C,D3*%
X17693750Y-62300000D03*
X19268750Y-62300000D03*
%TD*%
D15*
%TO.C,C1*%
X31200000Y-44450000D03*
X29650000Y-44450000D03*
%TD*%
D16*
%TO.C,R10*%
X22531250Y-62300000D03*
X24181250Y-62300000D03*
%TD*%
D11*
%TO.C,C5*%
X162050000Y-30750000D03*
X162050000Y-32300000D03*
%TD*%
D16*
%TO.C,R11*%
X39925000Y-57800000D03*
X41575000Y-57800000D03*
%TD*%
D17*
%TO.C,D2*%
X41050000Y-144912500D03*
X41050000Y-146487500D03*
%TD*%
D15*
%TO.C,C11*%
X53200000Y-53550000D03*
X51650000Y-53550000D03*
%TD*%
D18*
%TO.C,C8*%
X67450000Y-54250000D03*
X69000000Y-54250000D03*
%TD*%
%TO.C,C6*%
X29925000Y-153550000D03*
X31475000Y-153550000D03*
%TD*%
D12*
%TO.C,R8*%
X20200000Y-26975000D03*
X20200000Y-28625000D03*
%TD*%
D19*
%TO.C,U3*%
X55100000Y-53550000D03*
X55600000Y-53550000D03*
X56100000Y-53550000D03*
X56600000Y-53550000D03*
X57100000Y-53550000D03*
X57100000Y-49150000D03*
X56600000Y-49150000D03*
X56100000Y-49150000D03*
X55600000Y-49150000D03*
X55100000Y-49150000D03*
%TD*%
D18*
%TO.C,C7*%
X30275000Y-165450000D03*
X31825000Y-165450000D03*
%TD*%
D20*
%TO.C,U4*%
X38600000Y-44412500D03*
X36300000Y-44412500D03*
X34000000Y-44412500D03*
D21*
X36300000Y-50612500D03*
%TD*%
D19*
%TO.C,U1*%
X64000000Y-53450000D03*
X64500000Y-53450000D03*
X65000000Y-53450000D03*
X65500000Y-53450000D03*
X66000000Y-53450000D03*
X66000000Y-49050000D03*
X65500000Y-49050000D03*
X65000000Y-49050000D03*
X64500000Y-49050000D03*
X64000000Y-49050000D03*
%TD*%
D16*
%TO.C,R12*%
X42750000Y-60300000D03*
X44400000Y-60300000D03*
%TD*%
D13*
%TO.C,R6*%
X67700000Y-64575000D03*
X67700000Y-62925000D03*
%TD*%
D22*
%TO.C,J15*%
X28910000Y-27350000D03*
D23*
X26890000Y-27350000D03*
D24*
X25660000Y-27350000D03*
D25*
X27910000Y-27350000D03*
D26*
X29930000Y-27350000D03*
D27*
X31160000Y-27350000D03*
D28*
X32730000Y-27270000D03*
X32730000Y-23470000D03*
X24090000Y-27270000D03*
X24090000Y-23470000D03*
%TD*%
D13*
%TO.C,R1*%
X18550000Y-28600000D03*
X18550000Y-26950000D03*
%TD*%
D12*
%TO.C,R9*%
X42150000Y-26475000D03*
X42150000Y-28125000D03*
%TD*%
D18*
%TO.C,C2*%
X36325000Y-42100000D03*
X37875000Y-42100000D03*
%TD*%
D17*
%TO.C,D1*%
X42150000Y-22412500D03*
X42150000Y-23987500D03*
%TD*%
D29*
%TO.C,Q1*%
X41062500Y-164187500D03*
X41062500Y-166087500D03*
X43337500Y-165137500D03*
%TD*%
M02*
