%TF.GenerationSoftware,KiCad,Pcbnew,9.0.4*%
%TF.CreationDate,2025-11-21T13:38:28-05:00*%
%TF.ProjectId,ece362project,65636533-3632-4707-926f-6a6563742e6b,rev?*%
%TF.SameCoordinates,Original*%
%TF.FileFunction,Soldermask,Top*%
%TF.FilePolarity,Negative*%
%FSLAX46Y46*%
G04 Gerber Fmt 4.6, Leading zero omitted, Abs format (unit mm)*
G04 Created by KiCad (PCBNEW 9.0.4) date 2025-11-21 13:38:28*
%MOMM*%
%LPD*%
G01*
G04 APERTURE LIST*
G04 Aperture macros list*
%AMRoundRect*
0 Rectangle with rounded corners*
0 $1 Rounding radius*
0 $2 $3 $4 $5 $6 $7 $8 $9 X,Y pos of 4 corners*
0 Add a 4 corners polygon primitive as box body*
4,1,4,$2,$3,$4,$5,$6,$7,$8,$9,$2,$3,0*
0 Add four circle primitives for the rounded corners*
1,1,$1+$1,$2,$3*
1,1,$1+$1,$4,$5*
1,1,$1+$1,$6,$7*
1,1,$1+$1,$8,$9*
0 Add four rect primitives between the rounded corners*
20,1,$1+$1,$2,$3,$4,$5,0*
20,1,$1+$1,$4,$5,$6,$7,0*
20,1,$1+$1,$6,$7,$8,$9,0*
20,1,$1+$1,$8,$9,$2,$3,0*%
G04 Aperture macros list end*
%ADD10C,1.600200*%
%ADD11R,3.000000X3.000000*%
%ADD12RoundRect,0.200000X0.200000X0.275000X-0.200000X0.275000X-0.200000X-0.275000X0.200000X-0.275000X0*%
%ADD13R,1.700000X1.700000*%
%ADD14C,1.700000*%
%ADD15RoundRect,0.225000X-0.250000X0.225000X-0.250000X-0.225000X0.250000X-0.225000X0.250000X0.225000X0*%
%ADD16RoundRect,0.200000X-0.275000X0.200000X-0.275000X-0.200000X0.275000X-0.200000X0.275000X0.200000X0*%
%ADD17C,2.154000*%
%ADD18C,1.982000*%
%ADD19C,3.404000*%
%ADD20C,1.400000*%
%ADD21RoundRect,0.200000X0.275000X-0.200000X0.275000X0.200000X-0.275000X0.200000X-0.275000X-0.200000X0*%
%ADD22RoundRect,0.218750X-0.218750X-0.256250X0.218750X-0.256250X0.218750X0.256250X-0.218750X0.256250X0*%
%ADD23RoundRect,0.225000X0.225000X0.250000X-0.225000X0.250000X-0.225000X-0.250000X0.225000X-0.250000X0*%
%ADD24RoundRect,0.200000X-0.200000X-0.275000X0.200000X-0.275000X0.200000X0.275000X-0.200000X0.275000X0*%
%ADD25RoundRect,0.218750X-0.256250X0.218750X-0.256250X-0.218750X0.256250X-0.218750X0.256250X0.218750X0*%
%ADD26RoundRect,0.225000X-0.225000X-0.250000X0.225000X-0.250000X0.225000X0.250000X-0.225000X0.250000X0*%
%ADD27RoundRect,0.075000X0.075000X-0.650000X0.075000X0.650000X-0.075000X0.650000X-0.075000X-0.650000X0*%
%ADD28RoundRect,0.102000X-0.600000X1.100000X-0.600000X-1.100000X0.600000X-1.100000X0.600000X1.100000X0*%
%ADD29RoundRect,0.102000X-1.750000X1.100000X-1.750000X-1.100000X1.750000X-1.100000X1.750000X1.100000X0*%
%ADD30RoundRect,0.175000X0.175000X0.425000X-0.175000X0.425000X-0.175000X-0.425000X0.175000X-0.425000X0*%
%ADD31RoundRect,0.190000X-0.190000X-0.410000X0.190000X-0.410000X0.190000X0.410000X-0.190000X0.410000X0*%
%ADD32RoundRect,0.200000X-0.200000X-0.400000X0.200000X-0.400000X0.200000X0.400000X-0.200000X0.400000X0*%
%ADD33RoundRect,0.175000X-0.175000X-0.425000X0.175000X-0.425000X0.175000X0.425000X-0.175000X0.425000X0*%
%ADD34RoundRect,0.190000X0.190000X0.410000X-0.190000X0.410000X-0.190000X-0.410000X0.190000X-0.410000X0*%
%ADD35RoundRect,0.200000X0.200000X0.400000X-0.200000X0.400000X-0.200000X-0.400000X0.200000X-0.400000X0*%
%ADD36O,1.100000X1.700000*%
%ADD37C,1.727200*%
%ADD38RoundRect,0.150000X-0.512500X-0.150000X0.512500X-0.150000X0.512500X0.150000X-0.512500X0.150000X0*%
G04 APERTURE END LIST*
D10*
%TO.C,J3*%
X21789998Y-160000000D03*
X21789998Y-156499998D03*
%TD*%
D11*
%TO.C,TP7*%
X60150000Y-23650000D03*
%TD*%
D12*
%TO.C,R2*%
X37925000Y-158750000D03*
X36275000Y-158750000D03*
%TD*%
D13*
%TO.C,J19*%
X162170000Y-150410000D03*
D14*
X162170000Y-152950000D03*
X162170000Y-155490000D03*
X162170000Y-158030000D03*
%TD*%
D11*
%TO.C,TP3*%
X67650000Y-43100000D03*
%TD*%
%TO.C,TP2*%
X50050000Y-43000000D03*
%TD*%
D15*
%TO.C,C10*%
X58950000Y-53550000D03*
X58950000Y-55100000D03*
%TD*%
D16*
%TO.C,R4*%
X27800000Y-154875000D03*
X27800000Y-156525000D03*
%TD*%
D17*
%TO.C,J10*%
X80750000Y-26700000D03*
X75750000Y-26700000D03*
X70750000Y-26700000D03*
%TD*%
D18*
%TO.C,U2*%
X60800000Y-92170000D03*
X60800000Y-89630000D03*
X60800000Y-87090000D03*
X60800000Y-84550000D03*
X60800000Y-82010000D03*
X60800000Y-79470000D03*
X43020000Y-92170000D03*
X43020000Y-89630000D03*
X43020000Y-87090000D03*
X43020000Y-84550000D03*
X43020000Y-82010000D03*
X43020000Y-79470000D03*
D19*
X43020000Y-95980000D03*
X43020000Y-75660000D03*
X60800000Y-95980000D03*
X60800000Y-75660000D03*
%TD*%
D13*
%TO.C,J17*%
X144500000Y-152740000D03*
D14*
X144500000Y-155280000D03*
X144500000Y-157820000D03*
%TD*%
D10*
%TO.C,J4*%
X21920000Y-172555101D03*
X21920000Y-169055099D03*
%TD*%
D20*
%TO.C,JP5*%
X125900000Y-80000000D03*
X123360000Y-80000000D03*
%TD*%
D13*
%TO.C,J16*%
X144450000Y-66550000D03*
D14*
X144450000Y-69090000D03*
X144450000Y-71630000D03*
X144450000Y-74170000D03*
X144450000Y-76710000D03*
X144450000Y-79250000D03*
X144450000Y-81790000D03*
X144450000Y-84330000D03*
X144450000Y-86870000D03*
X144450000Y-89410000D03*
X144450000Y-91950000D03*
X144450000Y-94490000D03*
X144450000Y-97030000D03*
X144450000Y-99570000D03*
X144450000Y-102110000D03*
X144450000Y-104650000D03*
X144450000Y-107190000D03*
X144450000Y-109730000D03*
X144450000Y-112270000D03*
X144450000Y-114810000D03*
X144450000Y-117350000D03*
X144450000Y-119890000D03*
X144450000Y-122430000D03*
X144450000Y-124970000D03*
X144450000Y-127510000D03*
X144450000Y-130050000D03*
X144450000Y-132590000D03*
X144450000Y-135130000D03*
%TD*%
D15*
%TO.C,C9*%
X62000000Y-53450000D03*
X62000000Y-55000000D03*
%TD*%
D13*
%TO.C,J14*%
X85500000Y-153080000D03*
D14*
X85500000Y-155620000D03*
X85500000Y-158160000D03*
%TD*%
D21*
%TO.C,R3*%
X41050000Y-151325000D03*
X41050000Y-149675000D03*
%TD*%
D20*
%TO.C,JP4*%
X123500000Y-77400000D03*
X126040000Y-77400000D03*
%TD*%
D16*
%TO.C,R5*%
X28300000Y-167425000D03*
X28300000Y-169075000D03*
%TD*%
D12*
%TO.C,R7*%
X73675000Y-63300000D03*
X72025000Y-63300000D03*
%TD*%
D11*
%TO.C,TP10*%
X19270000Y-81570000D03*
%TD*%
D22*
%TO.C,D3*%
X17693750Y-62300000D03*
X19268750Y-62300000D03*
%TD*%
D23*
%TO.C,C1*%
X31200000Y-44450000D03*
X29650000Y-44450000D03*
%TD*%
D10*
%TO.C,J8*%
X21350000Y-48945101D03*
X21350000Y-45445099D03*
%TD*%
D24*
%TO.C,R10*%
X22531250Y-62300000D03*
X24181250Y-62300000D03*
%TD*%
D15*
%TO.C,C5*%
X162050000Y-30750000D03*
X162050000Y-32300000D03*
%TD*%
D24*
%TO.C,R11*%
X39925000Y-57800000D03*
X41575000Y-57800000D03*
%TD*%
D10*
%TO.C,J7*%
X21150000Y-36050000D03*
X21150000Y-39550002D03*
%TD*%
D25*
%TO.C,D2*%
X41050000Y-144912500D03*
X41050000Y-146487500D03*
%TD*%
D23*
%TO.C,C11*%
X53200000Y-53550000D03*
X51650000Y-53550000D03*
%TD*%
D26*
%TO.C,C8*%
X67450000Y-54250000D03*
X69000000Y-54250000D03*
%TD*%
D13*
%TO.C,J1*%
X85450000Y-66770000D03*
D14*
X85450000Y-69310000D03*
X85450000Y-71850000D03*
X85450000Y-74390000D03*
X85450000Y-76930000D03*
X85450000Y-79470000D03*
X85450000Y-82010000D03*
X85450000Y-84550000D03*
X85450000Y-87090000D03*
X85450000Y-89630000D03*
X85450000Y-92170000D03*
X85450000Y-94710000D03*
X85450000Y-97250000D03*
X85450000Y-99790000D03*
X85450000Y-102330000D03*
X85450000Y-104870000D03*
X85450000Y-107410000D03*
X85450000Y-109950000D03*
X85450000Y-112490000D03*
X85450000Y-115030000D03*
X85450000Y-117570000D03*
X85450000Y-120110000D03*
X85450000Y-122650000D03*
X85450000Y-125190000D03*
X85450000Y-127730000D03*
X85450000Y-130270000D03*
X85450000Y-132810000D03*
X85450000Y-135350000D03*
%TD*%
D26*
%TO.C,C6*%
X29925000Y-153550000D03*
X31475000Y-153550000D03*
%TD*%
D16*
%TO.C,R8*%
X20200000Y-26975000D03*
X20200000Y-28625000D03*
%TD*%
D27*
%TO.C,U3*%
X55100000Y-53550000D03*
X55600000Y-53550000D03*
X56100000Y-53550000D03*
X56600000Y-53550000D03*
X57100000Y-53550000D03*
X57100000Y-49150000D03*
X56600000Y-49150000D03*
X56100000Y-49150000D03*
X55600000Y-49150000D03*
X55100000Y-49150000D03*
%TD*%
D17*
%TO.C,J6*%
X23550000Y-146320000D03*
X23550000Y-141320000D03*
X23550000Y-136320000D03*
%TD*%
D26*
%TO.C,C7*%
X30275000Y-165450000D03*
X31825000Y-165450000D03*
%TD*%
D13*
%TO.C,J12*%
X103250000Y-66770000D03*
D14*
X103250000Y-69310000D03*
X103250000Y-71850000D03*
X103250000Y-74390000D03*
X103250000Y-76930000D03*
X103250000Y-79470000D03*
X103250000Y-82010000D03*
X103250000Y-84550000D03*
X103250000Y-87090000D03*
X103250000Y-89630000D03*
X103250000Y-92170000D03*
X103250000Y-94710000D03*
X103250000Y-97250000D03*
X103250000Y-99790000D03*
X103250000Y-102330000D03*
X103250000Y-104870000D03*
X103250000Y-107410000D03*
X103250000Y-109950000D03*
X103250000Y-112490000D03*
X103250000Y-115030000D03*
X103250000Y-117570000D03*
X103250000Y-120110000D03*
X103250000Y-122650000D03*
X103250000Y-125190000D03*
X103250000Y-127730000D03*
X103250000Y-130270000D03*
X103250000Y-132810000D03*
X103250000Y-135350000D03*
%TD*%
D11*
%TO.C,TP4*%
X61900000Y-43100000D03*
%TD*%
D28*
%TO.C,U4*%
X38600000Y-44412500D03*
X36300000Y-44412500D03*
X34000000Y-44412500D03*
D29*
X36300000Y-50612500D03*
%TD*%
D20*
%TO.C,JP3*%
X41050000Y-158750000D03*
X41050000Y-156210000D03*
%TD*%
D11*
%TO.C,TP9*%
X19560000Y-71870000D03*
%TD*%
D27*
%TO.C,U1*%
X64000000Y-53450000D03*
X64500000Y-53450000D03*
X65000000Y-53450000D03*
X65500000Y-53450000D03*
X66000000Y-53450000D03*
X66000000Y-49050000D03*
X65500000Y-49050000D03*
X65000000Y-49050000D03*
X64500000Y-49050000D03*
X64000000Y-49050000D03*
%TD*%
D24*
%TO.C,R12*%
X42750000Y-60300000D03*
X44400000Y-60300000D03*
%TD*%
D21*
%TO.C,R6*%
X67700000Y-64575000D03*
X67700000Y-62925000D03*
%TD*%
D20*
%TO.C,JP9*%
X126100000Y-94300000D03*
X123560000Y-94300000D03*
%TD*%
D11*
%TO.C,TP1*%
X55800000Y-43050000D03*
%TD*%
%TO.C,TP6*%
X19420000Y-96140000D03*
%TD*%
D20*
%TO.C,JP6*%
X126150000Y-87250000D03*
X123610000Y-87250000D03*
%TD*%
D17*
%TO.C,J11*%
X141800000Y-25350000D03*
X136800000Y-25350000D03*
X131800000Y-25350000D03*
%TD*%
D11*
%TO.C,TP5*%
X52790000Y-23700000D03*
%TD*%
D30*
%TO.C,J15*%
X28910000Y-27350000D03*
D31*
X26890000Y-27350000D03*
D32*
X25660000Y-27350000D03*
D33*
X27910000Y-27350000D03*
D34*
X29930000Y-27350000D03*
D35*
X31160000Y-27350000D03*
D36*
X32730000Y-27270000D03*
X32730000Y-23470000D03*
X24090000Y-27270000D03*
X24090000Y-23470000D03*
%TD*%
D20*
%TO.C,JP1*%
X50750000Y-60450000D03*
X53290000Y-60450000D03*
%TD*%
%TO.C,JP8*%
X123500000Y-90800000D03*
X126040000Y-90800000D03*
%TD*%
D21*
%TO.C,R1*%
X18550000Y-28600000D03*
X18550000Y-26950000D03*
%TD*%
D20*
%TO.C,JP7*%
X123460000Y-83500000D03*
X126000000Y-83500000D03*
%TD*%
D13*
%TO.C,J13*%
X103280000Y-150600000D03*
D14*
X103280000Y-153140000D03*
X103280000Y-155680000D03*
X103280000Y-158220000D03*
%TD*%
D20*
%TO.C,JP2*%
X44300000Y-57800000D03*
X46840000Y-57800000D03*
%TD*%
D13*
%TO.C,J18*%
X162150000Y-66570000D03*
D14*
X162150000Y-69110000D03*
X162150000Y-71650000D03*
X162150000Y-74190000D03*
X162150000Y-76730000D03*
X162150000Y-79270000D03*
X162150000Y-81810000D03*
X162150000Y-84350000D03*
X162150000Y-86890000D03*
X162150000Y-89430000D03*
X162150000Y-91970000D03*
X162150000Y-94510000D03*
X162150000Y-97050000D03*
X162150000Y-99590000D03*
X162150000Y-102130000D03*
X162150000Y-104670000D03*
X162150000Y-107210000D03*
X162150000Y-109750000D03*
X162150000Y-112290000D03*
X162150000Y-114830000D03*
X162150000Y-117370000D03*
X162150000Y-119910000D03*
X162150000Y-122450000D03*
X162150000Y-124990000D03*
X162150000Y-127530000D03*
X162150000Y-130070000D03*
X162150000Y-132610000D03*
X162150000Y-135150000D03*
%TD*%
D16*
%TO.C,R9*%
X42150000Y-26475000D03*
X42150000Y-28125000D03*
%TD*%
D37*
%TO.C,J9*%
X31569999Y-109853399D03*
X31569999Y-113353400D03*
X31569999Y-116853400D03*
X31569999Y-120353401D03*
X31569999Y-123853401D03*
X31569999Y-127353402D03*
%TD*%
D26*
%TO.C,C2*%
X36325000Y-42100000D03*
X37875000Y-42100000D03*
%TD*%
D25*
%TO.C,D1*%
X42150000Y-22412500D03*
X42150000Y-23987500D03*
%TD*%
D13*
%TO.C,J5*%
X159475000Y-27325000D03*
D14*
X162015000Y-27325000D03*
X164555000Y-27325000D03*
%TD*%
D13*
%TO.C,J2*%
X101860000Y-32400000D03*
D14*
X104400000Y-32400000D03*
X106940000Y-32400000D03*
X109480000Y-32400000D03*
X112020000Y-32400000D03*
%TD*%
D38*
%TO.C,Q1*%
X41062500Y-164187500D03*
X41062500Y-166087500D03*
X43337500Y-165137500D03*
%TD*%
D11*
%TO.C,TP8*%
X19270000Y-88910000D03*
%TD*%
M02*
