%TF.GenerationSoftware,KiCad,Pcbnew,9.0.4*%
%TF.CreationDate,2025-11-21T12:20:24-05:00*%
%TF.ProjectId,ece362project,65636533-3632-4707-926f-6a6563742e6b,rev?*%
%TF.SameCoordinates,Original*%
%TF.FileFunction,Soldermask,Bot*%
%TF.FilePolarity,Negative*%
%FSLAX46Y46*%
G04 Gerber Fmt 4.6, Leading zero omitted, Abs format (unit mm)*
G04 Created by KiCad (PCBNEW 9.0.4) date 2025-11-21 12:20:24*
%MOMM*%
%LPD*%
G01*
G04 APERTURE LIST*
%ADD10C,1.600200*%
%ADD11R,1.700000X1.700000*%
%ADD12C,1.700000*%
%ADD13C,2.154000*%
%ADD14C,1.982000*%
%ADD15C,3.404000*%
%ADD16C,1.400000*%
%ADD17O,1.100000X1.700000*%
%ADD18C,1.727200*%
G04 APERTURE END LIST*
D10*
%TO.C,J3*%
X21789998Y-160000000D03*
X21789998Y-156499998D03*
%TD*%
D11*
%TO.C,J19*%
X162170000Y-150410000D03*
D12*
X162170000Y-152950000D03*
X162170000Y-155490000D03*
X162170000Y-158030000D03*
%TD*%
D13*
%TO.C,J10*%
X80750000Y-26700000D03*
X75750000Y-26700000D03*
X70750000Y-26700000D03*
%TD*%
D14*
%TO.C,U2*%
X60800000Y-92170000D03*
X60800000Y-89630000D03*
X60800000Y-87090000D03*
X60800000Y-84550000D03*
X60800000Y-82010000D03*
X60800000Y-79470000D03*
X43020000Y-92170000D03*
X43020000Y-89630000D03*
X43020000Y-87090000D03*
X43020000Y-84550000D03*
X43020000Y-82010000D03*
X43020000Y-79470000D03*
D15*
X43020000Y-95980000D03*
X43020000Y-75660000D03*
X60800000Y-95980000D03*
X60800000Y-75660000D03*
%TD*%
D11*
%TO.C,J17*%
X144500000Y-152740000D03*
D12*
X144500000Y-155280000D03*
X144500000Y-157820000D03*
%TD*%
D10*
%TO.C,J4*%
X21920000Y-172555101D03*
X21920000Y-169055099D03*
%TD*%
D16*
%TO.C,JP5*%
X125900000Y-80000000D03*
X123360000Y-80000000D03*
%TD*%
D11*
%TO.C,J16*%
X144450000Y-66550000D03*
D12*
X144450000Y-69090000D03*
X144450000Y-71630000D03*
X144450000Y-74170000D03*
X144450000Y-76710000D03*
X144450000Y-79250000D03*
X144450000Y-81790000D03*
X144450000Y-84330000D03*
X144450000Y-86870000D03*
X144450000Y-89410000D03*
X144450000Y-91950000D03*
X144450000Y-94490000D03*
X144450000Y-97030000D03*
X144450000Y-99570000D03*
X144450000Y-102110000D03*
X144450000Y-104650000D03*
X144450000Y-107190000D03*
X144450000Y-109730000D03*
X144450000Y-112270000D03*
X144450000Y-114810000D03*
X144450000Y-117350000D03*
X144450000Y-119890000D03*
X144450000Y-122430000D03*
X144450000Y-124970000D03*
X144450000Y-127510000D03*
X144450000Y-130050000D03*
X144450000Y-132590000D03*
X144450000Y-135130000D03*
%TD*%
D11*
%TO.C,J14*%
X85500000Y-153080000D03*
D12*
X85500000Y-155620000D03*
X85500000Y-158160000D03*
%TD*%
D16*
%TO.C,JP4*%
X123500000Y-77400000D03*
X126040000Y-77400000D03*
%TD*%
D10*
%TO.C,J8*%
X21350000Y-48945101D03*
X21350000Y-45445099D03*
%TD*%
%TO.C,J7*%
X21150000Y-36050000D03*
X21150000Y-39550002D03*
%TD*%
D11*
%TO.C,J1*%
X85450000Y-66770000D03*
D12*
X85450000Y-69310000D03*
X85450000Y-71850000D03*
X85450000Y-74390000D03*
X85450000Y-76930000D03*
X85450000Y-79470000D03*
X85450000Y-82010000D03*
X85450000Y-84550000D03*
X85450000Y-87090000D03*
X85450000Y-89630000D03*
X85450000Y-92170000D03*
X85450000Y-94710000D03*
X85450000Y-97250000D03*
X85450000Y-99790000D03*
X85450000Y-102330000D03*
X85450000Y-104870000D03*
X85450000Y-107410000D03*
X85450000Y-109950000D03*
X85450000Y-112490000D03*
X85450000Y-115030000D03*
X85450000Y-117570000D03*
X85450000Y-120110000D03*
X85450000Y-122650000D03*
X85450000Y-125190000D03*
X85450000Y-127730000D03*
X85450000Y-130270000D03*
X85450000Y-132810000D03*
X85450000Y-135350000D03*
%TD*%
D13*
%TO.C,J6*%
X23550000Y-146320000D03*
X23550000Y-141320000D03*
X23550000Y-136320000D03*
%TD*%
D11*
%TO.C,J12*%
X103250000Y-66770000D03*
D12*
X103250000Y-69310000D03*
X103250000Y-71850000D03*
X103250000Y-74390000D03*
X103250000Y-76930000D03*
X103250000Y-79470000D03*
X103250000Y-82010000D03*
X103250000Y-84550000D03*
X103250000Y-87090000D03*
X103250000Y-89630000D03*
X103250000Y-92170000D03*
X103250000Y-94710000D03*
X103250000Y-97250000D03*
X103250000Y-99790000D03*
X103250000Y-102330000D03*
X103250000Y-104870000D03*
X103250000Y-107410000D03*
X103250000Y-109950000D03*
X103250000Y-112490000D03*
X103250000Y-115030000D03*
X103250000Y-117570000D03*
X103250000Y-120110000D03*
X103250000Y-122650000D03*
X103250000Y-125190000D03*
X103250000Y-127730000D03*
X103250000Y-130270000D03*
X103250000Y-132810000D03*
X103250000Y-135350000D03*
%TD*%
D16*
%TO.C,JP3*%
X41050000Y-158750000D03*
X41050000Y-156210000D03*
%TD*%
%TO.C,JP9*%
X126100000Y-94300000D03*
X123560000Y-94300000D03*
%TD*%
%TO.C,JP6*%
X126150000Y-87250000D03*
X123610000Y-87250000D03*
%TD*%
D13*
%TO.C,J11*%
X141800000Y-25350000D03*
X136800000Y-25350000D03*
X131800000Y-25350000D03*
%TD*%
D17*
%TO.C,J15*%
X32730000Y-27270000D03*
X32730000Y-23470000D03*
X24090000Y-27270000D03*
X24090000Y-23470000D03*
%TD*%
D16*
%TO.C,JP1*%
X50750000Y-60450000D03*
X53290000Y-60450000D03*
%TD*%
%TO.C,JP8*%
X123500000Y-90800000D03*
X126040000Y-90800000D03*
%TD*%
%TO.C,JP7*%
X123460000Y-83500000D03*
X126000000Y-83500000D03*
%TD*%
D11*
%TO.C,J13*%
X103280000Y-150600000D03*
D12*
X103280000Y-153140000D03*
X103280000Y-155680000D03*
X103280000Y-158220000D03*
%TD*%
D16*
%TO.C,JP2*%
X44300000Y-57800000D03*
X46840000Y-57800000D03*
%TD*%
D11*
%TO.C,J18*%
X162150000Y-66570000D03*
D12*
X162150000Y-69110000D03*
X162150000Y-71650000D03*
X162150000Y-74190000D03*
X162150000Y-76730000D03*
X162150000Y-79270000D03*
X162150000Y-81810000D03*
X162150000Y-84350000D03*
X162150000Y-86890000D03*
X162150000Y-89430000D03*
X162150000Y-91970000D03*
X162150000Y-94510000D03*
X162150000Y-97050000D03*
X162150000Y-99590000D03*
X162150000Y-102130000D03*
X162150000Y-104670000D03*
X162150000Y-107210000D03*
X162150000Y-109750000D03*
X162150000Y-112290000D03*
X162150000Y-114830000D03*
X162150000Y-117370000D03*
X162150000Y-119910000D03*
X162150000Y-122450000D03*
X162150000Y-124990000D03*
X162150000Y-127530000D03*
X162150000Y-130070000D03*
X162150000Y-132610000D03*
X162150000Y-135150000D03*
%TD*%
D18*
%TO.C,J9*%
X31569999Y-109853399D03*
X31569999Y-113353400D03*
X31569999Y-116853400D03*
X31569999Y-120353401D03*
X31569999Y-123853401D03*
X31569999Y-127353402D03*
%TD*%
D11*
%TO.C,J5*%
X159475000Y-27325000D03*
D12*
X162015000Y-27325000D03*
X164555000Y-27325000D03*
%TD*%
D11*
%TO.C,J2*%
X101860000Y-32400000D03*
D12*
X104400000Y-32400000D03*
X106940000Y-32400000D03*
X109480000Y-32400000D03*
X112020000Y-32400000D03*
%TD*%
M02*
